<svg width="1305" height="320" viewBox="0 0 1305 320" fill="none" xmlns="http://www.w3.org/2000/svg">
<rect width="1305" height="320" rx="4" fill="#24428A"/>
<path d="M132.32 182.8C132.32 186.373 131.493 189.627 129.84 192.56C128.187 195.44 125.733 197.733 122.48 199.44C119.28 201.147 115.387 202 110.8 202H103.76V220H86V163.36H110.8C117.733 163.36 123.04 165.12 126.72 168.64C130.453 172.16 132.32 176.88 132.32 182.8ZM108.8 188C112.48 188 114.32 186.267 114.32 182.8C114.32 179.333 112.48 177.6 108.8 177.6H103.76V188H108.8ZM159.393 220.56C154.86 220.56 150.78 219.627 147.153 217.76C143.526 215.893 140.673 213.227 138.593 209.76C136.566 206.24 135.553 202.133 135.553 197.44C135.553 192.747 136.566 188.667 138.593 185.2C140.673 181.68 143.526 178.987 147.153 177.12C150.78 175.253 154.86 174.32 159.393 174.32C163.926 174.32 168.006 175.253 171.633 177.12C175.26 178.987 178.086 181.68 180.113 185.2C182.193 188.667 183.233 192.747 183.233 197.44C183.233 202.133 182.193 206.24 180.113 209.76C178.086 213.227 175.26 215.893 171.633 217.76C168.006 219.627 163.926 220.56 159.393 220.56ZM159.393 205.2C161.046 205.2 162.433 204.56 163.553 203.28C164.673 201.947 165.233 200 165.233 197.44C165.233 194.88 164.673 192.96 163.553 191.68C162.433 190.347 161.046 189.68 159.393 189.68C157.74 189.68 156.353 190.347 155.233 191.68C154.113 192.96 153.553 194.88 153.553 197.44C153.553 200 154.086 201.947 155.153 203.28C156.273 204.56 157.686 205.2 159.393 205.2ZM206.573 181.04C207.693 178.96 209.293 177.333 211.373 176.16C213.506 174.933 216.039 174.32 218.973 174.32C222.493 174.32 225.666 175.253 228.493 177.12C231.319 178.933 233.533 181.6 235.133 185.12C236.786 188.587 237.613 192.693 237.613 197.44C237.613 202.187 236.786 206.32 235.133 209.84C233.533 213.307 231.319 215.973 228.493 217.84C225.666 219.653 222.493 220.56 218.973 220.56C216.039 220.56 213.506 219.973 211.373 218.8C209.293 217.573 207.693 215.92 206.573 213.84V241.6H188.813V174.88H206.573V181.04ZM219.613 197.44C219.613 195.04 218.999 193.173 217.773 191.84C216.546 190.507 214.973 189.84 213.053 189.84C211.133 189.84 209.559 190.507 208.332 191.84C207.106 193.173 206.493 195.04 206.493 197.44C206.493 199.84 207.106 201.707 208.332 203.04C209.559 204.373 211.133 205.04 213.053 205.04C214.973 205.04 216.546 204.373 217.773 203.04C218.999 201.707 219.613 199.84 219.613 197.44ZM260.948 181.04C262.068 178.96 263.668 177.333 265.748 176.16C267.881 174.933 270.414 174.32 273.348 174.32C276.868 174.32 280.041 175.253 282.868 177.12C285.694 178.933 287.908 181.6 289.508 185.12C291.161 188.587 291.988 192.693 291.988 197.44C291.988 202.187 291.161 206.32 289.508 209.84C287.908 213.307 285.694 215.973 282.868 217.84C280.041 219.653 276.868 220.56 273.348 220.56C270.414 220.56 267.881 219.973 265.748 218.8C263.668 217.573 262.068 215.92 260.948 213.84V241.6H243.188V174.88H260.948V181.04ZM273.988 197.44C273.988 195.04 273.374 193.173 272.148 191.84C270.921 190.507 269.348 189.84 267.428 189.84C265.508 189.84 263.934 190.507 262.707 191.84C261.481 193.173 260.868 195.04 260.868 197.44C260.868 199.84 261.481 201.707 262.707 203.04C263.934 204.373 265.508 205.04 267.428 205.04C269.348 205.04 270.921 204.373 272.148 203.04C273.374 201.707 273.988 199.84 273.988 197.44ZM306.523 171.28C303.429 171.28 300.949 170.453 299.083 168.8C297.216 167.147 296.283 165.067 296.283 162.56C296.283 160 297.216 157.893 299.083 156.24C300.949 154.533 303.429 153.68 306.523 153.68C309.563 153.68 312.016 154.533 313.883 156.24C315.749 157.893 316.683 160 316.683 162.56C316.683 165.067 315.749 167.147 313.883 168.8C312.016 170.453 309.563 171.28 306.523 171.28ZM315.323 174.88V220H297.563V174.88H315.323ZM354.944 174.56C360.117 174.56 364.144 176.293 367.024 179.76C369.957 183.227 371.424 187.92 371.424 193.84V220H353.744V196.08C353.744 193.947 353.157 192.267 351.984 191.04C350.864 189.76 349.344 189.12 347.424 189.12C345.45 189.12 343.904 189.76 342.784 191.04C341.664 192.267 341.104 193.947 341.104 196.08V220H323.344V174.88H341.104V181.76C342.49 179.627 344.33 177.893 346.624 176.56C348.97 175.227 351.744 174.56 354.944 174.56ZM399.205 220.56C394.938 220.56 391.152 219.867 387.845 218.48C384.592 217.093 382.005 215.173 380.085 212.72C378.165 210.267 377.072 207.493 376.805 204.4H393.845C394.058 205.733 394.618 206.72 395.525 207.36C396.485 208 397.685 208.32 399.125 208.32C400.032 208.32 400.752 208.133 401.285 207.76C401.818 207.333 402.085 206.827 402.085 206.24C402.085 205.227 401.525 204.507 400.405 204.08C399.285 203.653 397.392 203.173 394.725 202.64C391.472 202 388.778 201.307 386.645 200.56C384.565 199.813 382.725 198.533 381.125 196.72C379.578 194.907 378.805 192.4 378.805 189.2C378.805 186.427 379.525 183.92 380.965 181.68C382.458 179.387 384.645 177.6 387.525 176.32C390.405 174.987 393.898 174.32 398.005 174.32C404.085 174.32 408.832 175.813 412.245 178.8C415.712 181.787 417.792 185.68 418.485 190.48H402.725C402.458 189.253 401.898 188.32 401.045 187.68C400.192 186.987 399.045 186.64 397.605 186.64C396.698 186.64 396.005 186.827 395.525 187.2C395.045 187.52 394.805 188.027 394.805 188.72C394.805 189.627 395.365 190.32 396.485 190.8C397.605 191.227 399.392 191.68 401.845 192.16C405.098 192.8 407.845 193.52 410.085 194.32C412.325 195.12 414.272 196.507 415.925 198.48C417.578 200.4 418.405 203.067 418.405 206.48C418.405 209.147 417.632 211.547 416.085 213.68C414.538 215.813 412.298 217.493 409.365 218.72C406.485 219.947 403.098 220.56 399.205 220.56Z" fill="#FFCD59"/>
<path d="M434.253 220.64C431.16 220.64 428.68 219.813 426.813 218.16C424.946 216.507 424.013 214.427 424.013 211.92C424.013 209.36 424.946 207.253 426.813 205.6C428.68 203.893 431.16 203.04 434.253 203.04C437.293 203.04 439.746 203.893 441.613 205.6C443.48 207.253 444.413 209.36 444.413 211.92C444.413 214.427 443.48 216.507 441.613 218.16C439.746 219.813 437.293 220.64 434.253 220.64Z" fill="#2C63E5"/>
<path d="M88 96.04V124H85.2V96.04H88ZM104.037 113.04C104.037 110.8 104.477 108.84 105.357 107.16C106.264 105.453 107.504 104.147 109.077 103.24C110.677 102.307 112.477 101.84 114.477 101.84C116.557 101.84 118.344 102.32 119.837 103.28C121.357 104.24 122.451 105.467 123.117 106.96V102.16H125.917V124H123.117V119.16C122.424 120.653 121.317 121.893 119.797 122.88C118.304 123.84 116.517 124.32 114.437 124.32C112.464 124.32 110.677 123.853 109.077 122.92C107.504 121.987 106.264 120.667 105.357 118.96C104.477 117.253 104.037 115.28 104.037 113.04ZM123.117 113.08C123.117 111.32 122.757 109.773 122.037 108.44C121.317 107.107 120.331 106.08 119.077 105.36C117.851 104.64 116.491 104.28 114.997 104.28C113.451 104.28 112.064 104.627 110.837 105.32C109.611 106.013 108.637 107.027 107.917 108.36C107.224 109.667 106.877 111.227 106.877 113.04C106.877 114.827 107.224 116.4 107.917 117.76C108.637 119.093 109.611 120.12 110.837 120.84C112.064 121.533 113.451 121.88 114.997 121.88C116.491 121.88 117.851 121.52 119.077 120.8C120.331 120.08 121.317 119.053 122.037 117.72C122.757 116.387 123.117 114.84 123.117 113.08ZM158.309 101.76C160.869 101.76 162.949 102.573 164.549 104.2C166.176 105.8 166.989 108.133 166.989 111.2V124H164.229V111.52C164.229 109.147 163.656 107.333 162.509 106.08C161.363 104.827 159.803 104.2 157.829 104.2C155.776 104.2 154.136 104.88 152.909 106.24C151.683 107.6 151.069 109.573 151.069 112.16V124H148.309V111.52C148.309 109.147 147.736 107.333 146.589 106.08C145.443 104.827 143.869 104.2 141.869 104.2C139.816 104.2 138.176 104.88 136.949 106.24C135.723 107.6 135.109 109.573 135.109 112.16V124H132.309V102.16H135.109V105.92C135.803 104.56 136.789 103.533 138.069 102.84C139.349 102.12 140.776 101.76 142.349 101.76C144.243 101.76 145.896 102.213 147.309 103.12C148.749 104.027 149.789 105.36 150.429 107.12C151.016 105.387 152.016 104.067 153.429 103.16C154.869 102.227 156.496 101.76 158.309 101.76Z" fill="white"/>
</svg>
