<svg width="1305" height="320" viewBox="0 0 1305 320" fill="none" xmlns="http://www.w3.org/2000/svg">
<rect width="1305" height="320" rx="4" fill="#24428A"/>
<path d="M124.4 204.8C124.4 184.16 94.32 193.12 94.32 178.72C94.32 172.72 99.04 169.6 105.04 169.76C111.84 169.84 115.36 174.08 115.84 177.84H123.84C122.96 169.36 116 163.52 105.36 163.52C94.32 163.52 86.88 169.76 86.88 178.96C86.88 199.68 117.04 190.08 117.04 205.12C117.04 210.4 112.88 214.4 105.84 214.4C98.08 214.4 94.8 209.76 94.32 205.12H86.56C86.72 214.32 94.64 220.56 105.84 220.56C117.92 220.56 124.4 212.72 124.4 204.8ZM176.713 198C176.713 184.16 167.033 175.44 154.553 175.44C142.153 175.44 132.393 184.16 132.393 198C132.393 211.92 141.833 220.72 154.233 220.72C166.713 220.72 176.713 211.92 176.713 198ZM139.833 198C139.833 186.96 146.793 181.76 154.473 181.76C161.993 181.76 169.273 186.96 169.273 198C169.273 209.12 161.833 214.32 154.233 214.32C146.633 214.32 139.833 209.12 139.833 198ZM225.165 176.16H217.885V200.24C217.885 209.68 212.845 214.32 205.325 214.32C197.965 214.32 193.085 209.76 193.085 200.88V176.16H185.885V201.84C185.885 214.4 193.805 220.64 203.885 220.64C209.725 220.64 215.085 218.08 217.885 213.52V220H225.165V176.16ZM244.737 196.16C244.737 186 250.017 182.88 256.977 182.88H258.897V175.36C251.937 175.36 247.217 178.4 244.737 183.28V176.16H237.457V220H244.737V196.16ZM264.581 198C264.581 211.92 273.461 220.72 285.941 220.72C296.821 220.72 303.941 214.64 306.181 205.92H298.341C296.741 211.44 292.421 214.56 285.941 214.56C277.941 214.56 272.021 208.88 272.021 198C272.021 187.28 277.941 181.6 285.941 181.6C292.421 181.6 296.821 184.96 298.341 190.24H306.181C303.941 181.04 296.821 175.44 285.941 175.44C273.461 175.44 264.581 184.24 264.581 198ZM334.534 181.6C342.054 181.6 348.454 186.32 348.374 194.88H320.694C321.494 186.32 327.414 181.6 334.534 181.6ZM355.014 206.48H347.174C345.574 211.2 341.414 214.56 334.854 214.56C327.414 214.56 321.174 209.68 320.614 200.8H355.654C355.814 199.28 355.894 198 355.894 196.4C355.894 184.4 347.574 175.44 334.854 175.44C322.054 175.44 313.174 184.16 313.174 198C313.174 211.92 322.374 220.72 334.854 220.72C345.734 220.72 352.774 214.48 355.014 206.48ZM423.072 204.8C423.072 184.16 392.992 193.12 392.992 178.72C392.992 172.72 397.712 169.6 403.712 169.76C410.512 169.84 414.032 174.08 414.512 177.84H422.512C421.632 169.36 414.672 163.52 404.032 163.52C392.992 163.52 385.552 169.76 385.552 178.96C385.552 199.68 415.712 190.08 415.712 205.12C415.712 210.4 411.552 214.4 404.512 214.4C396.752 214.4 393.472 209.76 392.992 205.12H385.232C385.392 214.32 393.312 220.56 404.512 220.56C416.592 220.56 423.072 212.72 423.072 204.8ZM431.065 197.92C431.065 211.52 440.105 220.72 451.785 220.72C459.865 220.72 465.545 216.56 468.185 211.84V220H475.545V176.16H468.185V184.16C465.625 179.6 460.025 175.44 451.865 175.44C440.105 175.44 431.065 184.24 431.065 197.92ZM468.185 198C468.185 208.32 461.305 214.32 453.305 214.32C445.305 214.32 438.505 208.24 438.505 197.92C438.505 187.6 445.305 181.76 453.305 181.76C461.305 181.76 468.185 187.84 468.185 198ZM519.928 220H527.128V194.16C527.128 181.6 519.368 175.36 509.208 175.36C503.288 175.36 498.008 177.84 495.128 182.4V176.16H487.848V220H495.128V195.76C495.128 186.32 500.248 181.68 507.688 181.68C515.048 181.68 519.928 186.24 519.928 195.2V220ZM570.539 208.08C570.219 192.4 544.779 198.08 544.779 187.68C544.779 184.16 547.979 181.6 553.339 181.6C559.179 181.6 562.539 184.8 562.859 189.2H570.139C569.659 180.64 563.259 175.44 553.579 175.44C543.819 175.44 537.499 180.96 537.499 187.68C537.499 204 563.419 198.32 563.419 208.08C563.419 211.68 560.219 214.56 554.459 214.56C548.299 214.56 544.539 211.36 544.139 207.12H536.619C537.099 215.12 544.299 220.72 554.539 220.72C564.219 220.72 570.539 215.28 570.539 208.08ZM609.424 190.72V170.24H620.144C628.464 170.24 631.984 174.08 631.984 180.56C631.984 186.8 628.464 190.72 620.144 190.72H609.424ZM639.424 180.56C639.424 171.44 633.264 164.24 620.144 164.24H602.144V220H609.424V196.72H620.144C633.984 196.72 639.424 189.04 639.424 180.56ZM655.753 196.16C655.753 186 661.033 182.88 667.993 182.88H669.913V175.36C662.953 175.36 658.233 178.4 655.753 183.28V176.16H648.473V220H655.753V196.16ZM719.916 198C719.916 184.16 710.236 175.44 697.756 175.44C685.356 175.44 675.596 184.16 675.596 198C675.596 211.92 685.036 220.72 697.436 220.72C709.916 220.72 719.916 211.92 719.916 198ZM683.036 198C683.036 186.96 689.996 181.76 697.676 181.76C705.196 181.76 712.476 186.96 712.476 198C712.476 209.12 705.036 214.32 697.436 214.32C689.836 214.32 683.036 209.12 683.036 198Z" fill="#FFCD59"/>
<path d="M736.608 215.52C736.608 212.72 734.448 210.56 731.808 210.56C729.008 210.56 726.848 212.72 726.848 215.52C726.848 218.32 729.008 220.48 731.808 220.48C734.448 220.48 736.608 218.32 736.608 215.52Z" fill="#2C63E5"/>
<path d="M85.6 122H88.96V95.76H85.6V122ZM108.276 122.48C110.716 122.48 112.836 121.24 114.676 119.68H114.796L115.116 122H117.836V110.04C117.836 105.24 115.796 102.08 111.076 102.08C107.956 102.08 105.236 103.4 103.436 104.6L104.716 106.84C106.236 105.84 108.276 104.84 110.516 104.84C113.676 104.84 114.476 107.2 114.516 109.64C106.196 110.56 102.596 112.64 102.596 116.96C102.596 120.48 105.036 122.48 108.276 122.48ZM109.196 119.76C107.316 119.76 105.836 118.92 105.836 116.76C105.836 114.24 107.956 112.76 114.516 112V117.28C112.636 118.92 111.076 119.76 109.196 119.76ZM123.952 122H127.272V107.92C129.072 105.92 130.672 104.96 132.112 104.96C134.592 104.96 135.712 106.48 135.712 110.12V122H139.032V107.92C140.832 105.92 142.392 104.96 143.912 104.96C146.352 104.96 147.512 106.48 147.512 110.12V122H150.832V109.68C150.832 104.72 148.912 102.08 144.912 102.08C142.552 102.08 140.512 103.6 138.512 105.76C137.712 103.48 136.112 102.08 133.112 102.08C130.792 102.08 128.792 103.52 127.072 105.36H126.952L126.672 102.56H123.952V122Z" fill="white"/>
</svg>
