<svg width="1305" height="793" viewBox="0 0 1305 793" fill="none" xmlns="http://www.w3.org/2000/svg">
<rect width="1305" height="793" rx="4" fill="#FFF7E6"/>
<path d="M76.776 125.064V112.392H83.472C88.368 112.392 90.456 114.84 90.456 118.728C90.456 122.616 88.368 125.064 83.472 125.064H76.776ZM102.984 118.728C102.984 109.44 96.792 102.456 84.408 102.456H64.464V153H76.776V134.856H84.408C97.296 134.856 102.984 127.08 102.984 118.728ZM148.706 132.912C148.706 120.168 139.634 112.248 127.826 112.248C116.09 112.248 106.946 120.168 106.946 132.912C106.946 145.656 115.874 153.576 127.682 153.576C139.49 153.576 148.706 145.656 148.706 132.912ZM119.474 132.912C119.474 126.072 123.362 122.904 127.826 122.904C132.146 122.904 136.178 126.072 136.178 132.912C136.178 139.68 132.074 142.92 127.682 142.92C123.218 142.92 119.474 139.68 119.474 132.912ZM167.549 118.512V112.824H155.237V172.152H167.549V147.384C169.781 150.768 174.029 153.576 179.933 153.576C189.797 153.576 197.645 145.512 197.645 132.84C197.645 120.168 189.797 112.248 179.933 112.248C174.029 112.248 169.781 114.984 167.549 118.512ZM185.117 132.84C185.117 139.248 180.941 142.848 176.261 142.848C171.653 142.848 167.477 139.32 167.477 132.912C167.477 126.504 171.653 122.976 176.261 122.976C180.941 122.976 185.117 126.432 185.117 132.84ZM216.417 118.512V112.824H204.105V172.152H216.417V147.384C218.649 150.768 222.897 153.576 228.801 153.576C238.665 153.576 246.513 145.512 246.513 132.84C246.513 120.168 238.665 112.248 228.801 112.248C222.897 112.248 218.649 114.984 216.417 118.512ZM233.985 132.84C233.985 139.248 229.809 142.848 225.129 142.848C220.521 142.848 216.345 139.32 216.345 132.912C216.345 126.504 220.521 122.976 225.129 122.976C229.809 122.976 233.985 126.432 233.985 132.84ZM252.972 153H265.284V112.824H252.972V153ZM259.164 108.648C263.484 108.648 266.436 105.696 266.436 102.024C266.436 98.28 263.484 95.328 259.164 95.328C254.772 95.328 251.82 98.28 251.82 102.024C251.82 105.696 254.772 108.648 259.164 108.648ZM301.926 153H314.166V129.528C314.166 118.728 307.974 112.392 298.686 112.392C293.286 112.392 288.966 114.768 286.518 118.152V112.824H274.206V153H286.518V131.184C286.518 125.712 289.542 122.688 294.222 122.688C298.902 122.688 301.926 125.712 301.926 131.184V153ZM355.338 141.336C355.122 126.36 333.378 130.896 333.378 124.488C333.378 122.544 334.962 121.392 337.842 121.392C341.298 121.392 343.386 123.192 343.746 125.928H355.122C354.33 118.008 348.57 112.248 338.202 112.248C327.69 112.248 321.858 117.864 321.858 124.704C321.858 139.464 343.746 134.784 343.746 141.264C343.746 143.064 342.09 144.504 338.922 144.504C335.538 144.504 333.018 142.632 332.73 139.824H320.562C321.138 147.6 328.338 153.576 339.066 153.576C349.146 153.576 355.338 148.32 355.338 141.336Z" fill="#CC981F"/>
<path d="M73.056 229.576C79.68 229.576 83.808 225.592 83.808 220.6C83.808 215.944 80.976 213.736 77.328 212.2L72.816 210.232C70.368 209.224 67.632 208.072 67.632 205.048C67.632 202.264 69.936 200.488 73.44 200.488C76.176 200.488 78.624 201.592 80.544 203.416L82.752 200.728C80.544 198.52 77.28 196.936 73.44 196.936C67.728 196.936 63.552 200.488 63.552 205.288C63.552 209.944 66.96 212.152 69.888 213.4L74.448 215.416C77.376 216.712 79.68 217.72 79.68 220.936C79.68 223.96 77.232 226.024 73.104 226.024C69.792 226.024 66.576 224.584 64.272 222.232L62.016 224.872C64.752 227.8 68.544 229.576 73.056 229.576ZM98.6486 229.576C104.361 229.576 109.497 225.112 109.497 217.384C109.497 209.56 104.361 205.096 98.6486 205.096C92.9366 205.096 87.8486 209.56 87.8486 217.384C87.8486 225.112 92.9366 229.576 98.6486 229.576ZM98.6486 226.264C94.6646 226.264 91.9766 222.712 91.9766 217.384C91.9766 212.008 94.6646 208.408 98.6486 208.408C102.681 208.408 105.369 212.008 105.369 217.384C105.369 222.712 102.681 226.264 98.6486 226.264ZM122.408 229.576C125.624 229.576 127.928 227.896 130.088 225.352H130.232L130.568 229H133.832V205.672H129.848V222.184C127.688 224.92 126.008 226.12 123.656 226.12C120.584 226.12 119.24 224.248 119.24 219.928V205.672H115.256V220.456C115.256 226.408 117.464 229.576 122.408 229.576ZM141.702 229H145.686V214.024C147.27 210.088 149.622 208.696 151.59 208.696C152.502 208.696 153.03 208.792 153.702 208.984L154.566 205.576C153.846 205.24 153.126 205.096 152.07 205.096C149.478 205.096 147.078 206.968 145.446 209.896H145.302L144.966 205.672H141.702V229ZM167.136 229.576C169.92 229.576 172.56 228.52 174.672 226.6L172.944 224.056C171.552 225.304 169.632 226.264 167.472 226.264C163.2 226.264 160.32 222.712 160.32 217.384C160.32 212.008 163.392 208.408 167.616 208.408C169.488 208.408 170.976 209.128 172.272 210.328L174.24 207.832C172.608 206.296 170.496 205.096 167.424 205.096C161.424 205.096 156.192 209.56 156.192 217.384C156.192 225.112 160.944 229.576 167.136 229.576ZM188.188 229.576C191.404 229.576 193.9 228.616 195.916 227.176L194.524 224.632C192.892 225.736 190.924 226.36 188.668 226.36C184.252 226.36 181.324 223.192 180.988 218.392H196.684C196.828 217.624 196.876 216.904 196.876 216.04C196.876 209.32 193.468 205.096 187.516 205.096C182.188 205.096 177.052 209.752 177.052 217.336C177.052 225.064 181.948 229.576 188.188 229.576ZM180.988 215.32C181.468 210.856 184.348 208.264 187.612 208.264C191.164 208.264 193.324 210.712 193.324 215.32H180.988ZM221.322 229.576C227.946 229.576 232.074 225.592 232.074 220.6C232.074 215.944 229.242 213.736 225.594 212.2L221.082 210.232C218.634 209.224 215.898 208.072 215.898 205.048C215.898 202.264 218.202 200.488 221.706 200.488C224.442 200.488 226.89 201.592 228.81 203.416L231.018 200.728C228.81 198.52 225.546 196.936 221.706 196.936C215.994 196.936 211.818 200.488 211.818 205.288C211.818 209.944 215.226 212.152 218.154 213.4L222.714 215.416C225.642 216.712 227.946 217.72 227.946 220.936C227.946 223.96 225.498 226.024 221.37 226.024C218.058 226.024 214.842 224.584 212.538 222.232L210.282 224.872C213.018 227.8 216.81 229.576 221.322 229.576ZM243.218 229.576C246.146 229.576 248.69 228.088 250.898 226.216H251.042L251.426 229H254.69V214.648C254.69 208.888 252.242 205.096 246.578 205.096C242.834 205.096 239.57 206.68 237.41 208.12L238.946 210.808C240.77 209.608 243.218 208.408 245.906 208.408C249.698 208.408 250.658 211.24 250.706 214.168C240.722 215.272 236.402 217.768 236.402 222.952C236.402 227.176 239.33 229.576 243.218 229.576ZM244.322 226.312C242.066 226.312 240.29 225.304 240.29 222.712C240.29 219.688 242.834 217.912 250.706 217V223.336C248.45 225.304 246.578 226.312 244.322 226.312ZM262.03 229H266.014V212.104C268.318 209.752 269.998 208.552 272.35 208.552C275.422 208.552 276.766 210.376 276.766 214.744V229H280.75V214.216C280.75 208.264 278.542 205.096 273.598 205.096C270.382 205.096 267.982 206.824 265.774 209.032H265.63L265.294 205.672H262.03V229ZM294.376 229.576C299.896 229.576 302.92 226.408 302.92 222.616C302.92 218.392 299.416 216.808 295.768 215.512C292.84 214.504 290.824 213.64 290.824 211.528C290.824 209.8 292.12 208.168 295.096 208.168C297.16 208.168 298.84 208.84 300.472 210.04L302.296 207.736C300.472 206.2 297.976 205.096 295.048 205.096C289.96 205.096 286.984 207.976 286.984 211.72C286.984 215.56 290.344 217.24 293.848 218.488C296.488 219.448 299.08 220.456 299.08 222.856C299.08 224.872 297.592 226.456 294.52 226.456C291.64 226.456 289.528 225.592 287.512 223.912L285.688 226.216C287.848 228.328 290.968 229.576 294.376 229.576ZM318.383 229H322.415V216.52H327.551C334.463 216.52 339.215 213.448 339.215 206.776C339.215 199.864 334.415 197.512 327.359 197.512H318.383V229ZM322.415 213.256V200.776H326.879C332.399 200.776 335.183 202.264 335.183 206.776C335.183 211.24 332.543 213.256 327.071 213.256H322.415ZM345.233 229H349.217V214.024C350.801 210.088 353.153 208.696 355.121 208.696C356.033 208.696 356.561 208.792 357.233 208.984L358.097 205.576C357.377 205.24 356.657 205.096 355.601 205.096C353.009 205.096 350.609 206.968 348.977 209.896H348.833L348.497 205.672H345.233V229ZM370.524 229.576C376.236 229.576 381.372 225.112 381.372 217.384C381.372 209.56 376.236 205.096 370.524 205.096C364.812 205.096 359.724 209.56 359.724 217.384C359.724 225.112 364.812 229.576 370.524 229.576ZM370.524 226.264C366.54 226.264 363.852 222.712 363.852 217.384C363.852 212.008 366.54 208.408 370.524 208.408C374.556 208.408 377.244 212.008 377.244 217.384C377.244 222.712 374.556 226.264 370.524 226.264Z" fill="#CC981F"/>
<path d="M60 52H600" stroke="#CC981F"/>
<path d="M276.4 639H348.8L247.2 358.2H168L66.4 639H138L154.8 589.4H259.6L276.4 639ZM242 536.6H172.8L207.2 433.8L242 536.6ZM445.322 728.6C505.722 728.6 543.722 697.4 543.722 661C543.722 629 520.922 614.6 475.722 614.6H438.122C412.122 614.6 404.122 605.8 404.122 593.8C404.122 583 409.322 576.6 416.522 570.6C425.322 575 435.722 577.4 445.322 577.4C484.922 577.4 516.522 551.4 516.522 509.8C516.522 493.4 510.122 479 500.922 470.2H540.522V444.6H472.922C465.722 441.8 456.122 439.8 445.322 439.8C405.722 439.8 372.122 466.6 372.122 509C372.122 532.2 384.522 551 397.322 561.4V563C387.322 569.8 376.122 582.6 376.122 599C376.122 614.2 383.722 624.6 393.322 630.6V632.2C375.722 644.2 364.922 659.8 364.922 676.2C364.922 709.8 397.722 728.6 445.322 728.6ZM445.322 555C422.922 555 404.122 537.4 404.122 509C404.122 480.6 422.522 463.8 445.322 463.8C468.122 463.8 486.522 481 486.522 509C486.522 537.4 467.722 555 445.322 555ZM450.122 705.4C414.922 705.4 393.722 692.6 393.722 671.8C393.722 660.6 399.722 649 413.722 639C422.122 641.4 431.322 642.2 438.922 642.2H472.122C497.722 642.2 511.322 648.2 511.322 666.2C511.322 686.2 486.922 705.4 450.122 705.4Z" fill="#1A1A1A"/>
</svg>
